<svg width="46" height="46" viewBox="0 0 46 46" fill="none" xmlns="http://www.w3.org/2000/svg">
<path fill-rule="evenodd" clip-rule="evenodd" d="M23 44C34.598 44 44 34.598 44 23C44 11.402 34.598 2 23 2C11.402 2 2 11.402 2 23C2 34.598 11.402 44 23 44ZM23 46C35.7025 46 46 35.7025 46 23C46 10.2975 35.7025 0 23 0C10.2975 0 0 10.2975 0 23C0 35.7025 10.2975 46 23 46Z" fill="#23B57B"/>
<g clip-path="url(#clip0_5_69)">
<path d="M17.784 33.294H29.675C30.148 33.2935 30.6014 33.1053 30.9359 32.7709C31.2703 32.4364 31.4585 31.983 31.459 31.51V18.946H27.3C26.827 18.9455 26.3736 18.7573 26.0391 18.4229C25.7047 18.0884 25.5165 17.635 25.516 17.162V13H17.784C17.311 13.0005 16.8576 13.1887 16.5231 13.5231C16.1887 13.8576 16.0005 14.311 16 14.784V31.511C16.0008 31.9838 16.189 32.437 16.5235 32.7712C16.8579 33.1055 17.3112 33.2935 17.784 33.294ZM20.162 21.363H27.3C27.4535 21.3693 27.5985 21.4347 27.7049 21.5455C27.8112 21.6563 27.8706 21.8039 27.8706 21.9575C27.8706 22.1111 27.8112 22.2587 27.7049 22.3695C27.5985 22.4803 27.4535 22.5457 27.3 22.552H20.162C20.0086 22.5457 19.8635 22.4803 19.7571 22.3695C19.6508 22.2587 19.5914 22.1111 19.5914 21.9575C19.5914 21.8039 19.6508 21.6563 19.7571 21.5455C19.8635 21.4347 20.0086 21.3693 20.162 21.363ZM20.162 23.741H27.3C27.4535 23.7473 27.5985 23.8127 27.7049 23.9235C27.8112 24.0343 27.8706 24.1819 27.8706 24.3355C27.8706 24.4891 27.8112 24.6367 27.7049 24.7475C27.5985 24.8583 27.4535 24.9237 27.3 24.93H20.162C20.0086 24.9237 19.8635 24.8583 19.7571 24.7475C19.6508 24.6367 19.5914 24.4891 19.5914 24.3355C19.5914 24.1819 19.6508 24.0343 19.7571 23.9235C19.8635 23.8127 20.0086 23.7473 20.162 23.741ZM20.162 26.119H27.3C27.4535 26.1253 27.5985 26.1907 27.7049 26.3015C27.8112 26.4123 27.8706 26.5599 27.8706 26.7135C27.8706 26.8671 27.8112 27.0147 27.7049 27.1255C27.5985 27.2363 27.4535 27.3017 27.3 27.308H20.162C20.0086 27.3017 19.8635 27.2363 19.7571 27.1255C19.6508 27.0147 19.5914 26.8671 19.5914 26.7135C19.5914 26.5599 19.6508 26.4123 19.7571 26.3015C19.8635 26.1907 20.0086 26.1253 20.162 26.119ZM20.162 28.497H24.918C25.0715 28.5033 25.2165 28.5687 25.3229 28.6795C25.4292 28.7903 25.4886 28.9379 25.4886 29.0915C25.4886 29.2451 25.4292 29.3927 25.3229 29.5035C25.2165 29.6143 25.0715 29.6797 24.918 29.686H20.162C20.0086 29.6797 19.8635 29.6143 19.7571 29.5035C19.6508 29.3927 19.5914 29.2451 19.5914 29.0915C19.5914 28.9379 19.6508 28.7903 19.7571 28.6795C19.8635 28.5687 20.0086 28.5033 20.162 28.497Z" fill="#23B57B"/>
</g>
<defs>
<clipPath id="clip0_5_69">
<rect width="15.459" height="20.294" fill="white" transform="translate(16 13)"/>
</clipPath>
</defs>
</svg>
