<svg width="46" height="46" viewBox="0 0 46 46" fill="none" xmlns="http://www.w3.org/2000/svg">
<path fill-rule="evenodd" clip-rule="evenodd" d="M23 44C34.598 44 44 34.598 44 23C44 11.402 34.598 2 23 2C11.402 2 2 11.402 2 23C2 34.598 11.402 44 23 44ZM23 46C35.7025 46 46 35.7025 46 23C46 10.2975 35.7025 0 23 0C10.2975 0 0 10.2975 0 23C0 35.7025 10.2975 46 23 46Z" fill="#23B57B"/>
<path d="M25.5716 29.9976V28.0138C24.6917 27.7616 23.8827 27.3188 23.2057 26.7189L21.2839 27.8122L19.5704 24.9271L21.4746 23.846C21.2213 22.9436 21.2213 21.9921 21.4746 21.0897L20.1073 20.3171L17.2371 25.1494L19.5954 26.4857C19.5779 26.6594 19.5729 26.8319 19.5729 27.008C19.5729 27.1842 19.5729 27.3542 19.5954 27.5279L19.0498 27.8377H11V23.6844C11.0007 21.7031 11.8139 19.8032 13.2609 18.4024C14.7078 17.0017 16.6701 16.2148 18.7161 16.2148C20.4905 16.2176 22.2084 16.819 23.5745 17.9155C24.1721 17.47 24.849 17.1345 25.5716 16.9254V15H28.9987V16.9266C29.8781 17.1789 30.6869 17.6208 31.3646 18.2191L33.2864 17.1259L35 20.0134L33.0958 21.0909C33.349 21.9933 33.349 22.9448 33.0958 23.8472L35 24.9283L33.2864 27.8158L31.3646 26.7225C30.6877 27.3225 29.8786 27.7653 28.9987 28.0175V30L25.5716 29.9976ZM24.7136 22.466C24.7133 22.9589 24.864 23.4407 25.1467 23.8506C25.4293 24.2606 25.8311 24.5801 26.3013 24.7688C26.7714 24.9575 27.2889 25.007 27.7881 24.9109C28.2873 24.8148 28.7458 24.5775 29.1057 24.229C29.4656 23.8804 29.7107 23.4364 29.8099 22.953C29.9092 22.4696 29.8581 21.9685 29.6632 21.5132C29.4683 21.0579 29.1384 20.6688 28.7151 20.3951C28.2918 20.1214 27.7941 19.9755 27.2852 19.9757C26.9473 19.9755 26.6126 20.0399 26.3005 20.1652C25.9883 20.2905 25.7047 20.4741 25.466 20.7057C25.2272 20.9372 25.038 21.2121 24.9091 21.5146C24.7802 21.8171 24.7142 22.1412 24.7148 22.4684L24.7136 22.466Z" fill="#23B57B"/>
</svg>
