<svg width="46" height="46" viewBox="0 0 46 46" fill="none" xmlns="http://www.w3.org/2000/svg">
<path fill-rule="evenodd" clip-rule="evenodd" d="M23 44C34.598 44 44 34.598 44 23C44 11.402 34.598 2 23 2C11.402 2 2 11.402 2 23C2 34.598 11.402 44 23 44ZM23 46C35.7025 46 46 35.7025 46 23C46 10.2975 35.7025 0 23 0C10.2975 0 0 10.2975 0 23C0 35.7025 10.2975 46 23 46Z" fill="#23B57B"/>
<g clip-path="url(#clip0_5_67)">
<path d="M32.191 16.145C31.7391 16.145 31.2973 16.279 30.9215 16.5301C30.5458 16.7812 30.2529 17.138 30.0799 17.5556C29.907 17.9731 29.8617 18.4325 29.9499 18.8758C30.0381 19.319 30.2557 19.7262 30.5752 20.0457C30.8948 20.3653 31.302 20.5829 31.7452 20.6711C32.1885 20.7593 32.6479 20.714 33.0654 20.5411C33.4829 20.3681 33.8398 20.0753 34.0909 19.6995C34.342 19.3237 34.476 18.8819 34.476 18.43C34.4752 17.8242 34.2342 17.2435 33.8059 16.8151C33.3775 16.3868 32.7968 16.1458 32.191 16.145Z" fill="#23B57B"/>
<path d="M23 10C19.22 10 16.094 12.443 16.094 15.383C16.094 18.323 19.22 20.715 23 20.715C26.78 20.715 29.906 18.323 29.906 15.383C29.906 12.443 26.781 10 23 10ZM19.9 16.145C19.7493 16.145 19.602 16.1003 19.4766 16.0166C19.3513 15.9328 19.2537 15.8138 19.196 15.6746C19.1383 15.5354 19.1232 15.3822 19.1526 15.2343C19.182 15.0865 19.2546 14.9508 19.3612 14.8442C19.4677 14.7376 19.6035 14.665 19.7513 14.6356C19.8991 14.6062 20.0524 14.6213 20.1916 14.679C20.3308 14.7367 20.4498 14.8343 20.5336 14.9597C20.6173 15.085 20.662 15.2323 20.662 15.383C20.662 15.5846 20.5821 15.7779 20.4399 15.9208C20.2976 16.0636 20.1046 16.1442 19.903 16.145H19.9ZM23 16.145C22.8493 16.145 22.702 16.1003 22.5767 16.0166C22.4513 15.9328 22.3537 15.8138 22.296 15.6746C22.2383 15.5354 22.2232 15.3822 22.2526 15.2343C22.282 15.0865 22.3546 14.9508 22.4612 14.8442C22.5677 14.7376 22.7035 14.665 22.8513 14.6356C22.9991 14.6062 23.1524 14.6213 23.2916 14.679C23.4308 14.7367 23.5498 14.8343 23.6336 14.9597C23.7173 15.085 23.762 15.2323 23.762 15.383C23.762 15.4831 23.7423 15.5822 23.704 15.6746C23.6657 15.7671 23.6096 15.8511 23.5388 15.9218C23.4681 15.9926 23.384 16.0487 23.2916 16.087C23.1991 16.1253 23.1001 16.145 23 16.145ZM26.1 16.145C25.9493 16.145 25.802 16.1003 25.6767 16.0166C25.5513 15.9328 25.4537 15.8138 25.396 15.6746C25.3383 15.5354 25.3232 15.3822 25.3526 15.2343C25.382 15.0865 25.4546 14.9508 25.5612 14.8442C25.6677 14.7376 25.8035 14.665 25.9513 14.6356C26.0992 14.6062 26.2524 14.6213 26.3916 14.679C26.5308 14.7367 26.6499 14.8343 26.7336 14.9597C26.8173 15.085 26.862 15.2323 26.862 15.383C26.862 15.4836 26.8421 15.5832 26.8034 15.676C26.7648 15.7688 26.7081 15.8531 26.6367 15.9239C26.5653 15.9948 26.4806 16.0508 26.3874 16.0887C26.2943 16.1267 26.1946 16.1458 26.094 16.145H26.1Z" fill="#23B57B"/>
<path d="M35.101 20.857C34.5571 21.5181 33.8058 21.9762 32.969 22.157C32.969 22.185 32.953 22.209 32.953 22.238V23.761H29.144C28.74 23.761 28.3524 23.9215 28.0667 24.2072C27.781 24.4929 27.6205 24.8804 27.6205 25.2845C27.6205 25.6886 27.781 26.0761 28.0667 26.3618C28.3524 26.6475 28.74 26.808 29.144 26.808H32.191C32.3882 26.8151 32.5749 26.8985 32.7119 27.0405C32.8489 27.1826 32.9254 27.3722 32.9254 27.5695C32.9254 27.7668 32.8489 27.9564 32.7119 28.0985C32.5749 28.2405 32.3882 28.3239 32.191 28.331H29.906C29.6057 28.3306 29.3084 28.3895 29.0309 28.5042C28.7534 28.619 28.5013 28.7874 28.289 28.9997C28.0768 29.2121 27.9085 29.4643 27.7939 29.7418C27.6792 30.0193 27.6205 30.3167 27.621 30.617V34.476C27.621 34.8801 27.7815 35.2676 28.0672 35.5533C28.3529 35.839 28.7404 35.9995 29.1445 35.9995C29.5486 35.9995 29.9361 35.839 30.2218 35.5533C30.5075 35.2676 30.668 34.8801 30.668 34.476V31.376H33.715C34.0152 31.3764 34.3125 31.3176 34.5899 31.2029C34.8673 31.0882 35.1194 30.9199 35.3316 30.7076C35.5439 30.4954 35.7122 30.2433 35.8269 29.9659C35.9416 29.6885 36.0004 29.3912 36 29.091V22.236C35.9979 21.9442 35.9121 21.6591 35.7527 21.4147C35.5934 21.1702 35.3672 20.9767 35.101 20.857Z" fill="#23B57B"/>
<path d="M13.808 16.145C13.3561 16.145 12.9143 16.279 12.5385 16.5301C12.1628 16.7812 11.8699 17.138 11.6969 17.5556C11.524 17.9731 11.4787 18.4325 11.5669 18.8758C11.6551 19.319 11.8727 19.7262 12.1923 20.0457C12.5118 20.3653 12.919 20.5829 13.3622 20.6711C13.8055 20.7593 14.2649 20.714 14.6824 20.5411C15.1 20.3681 15.4568 20.0753 15.7079 19.6995C15.959 19.3237 16.093 18.8819 16.093 18.43C16.0922 17.8242 15.8512 17.2435 15.4229 16.8151C14.9945 16.3868 14.4138 16.1458 13.808 16.145Z" fill="#23B57B"/>
<path d="M16.094 28.332H13.809C13.6118 28.3249 13.4251 28.2415 13.2881 28.0995C13.1511 27.9574 13.0746 27.7678 13.0746 27.5705C13.0746 27.3732 13.1511 27.1836 13.2881 27.0415C13.4251 26.8995 13.6118 26.8162 13.809 26.809H16.855C17.2591 26.809 17.6466 26.6485 17.9323 26.3628C18.218 26.0771 18.3785 25.6896 18.3785 25.2855C18.3785 24.8814 18.218 24.4939 17.9323 24.2082C17.6466 23.9225 17.2591 23.762 16.855 23.762H13.047V22.239C13.047 22.21 13.032 22.186 13.031 22.158C12.1942 21.9772 11.4429 21.5191 10.899 20.858C10.6324 20.9777 10.4057 21.1715 10.2462 21.4163C10.0866 21.6612 10.0008 21.9467 9.99899 22.239V29.094C9.9986 29.3942 10.0574 29.6915 10.1721 29.9689C10.2868 30.2463 10.4551 30.4984 10.6674 30.7106C10.8796 30.9229 11.1317 31.0912 11.4091 31.2059C11.6865 31.3206 11.9838 31.3794 12.284 31.379H15.332V34.479C15.332 34.6791 15.3714 34.8772 15.448 35.062C15.5245 35.2469 15.6367 35.4148 15.7782 35.5563C15.9197 35.6977 16.0876 35.81 16.2725 35.8865C16.4573 35.9631 16.6554 36.0025 16.8555 36.0025C17.0556 36.0025 17.2537 35.9631 17.4385 35.8865C17.6234 35.81 17.7913 35.6977 17.9328 35.5563C18.0742 35.4148 18.1865 35.2469 18.263 35.062C18.3396 34.8772 18.379 34.6791 18.379 34.479V30.62C18.3798 30.3196 18.3212 30.0219 18.2067 29.7442C18.0922 29.4664 17.924 29.214 17.7117 29.0014C17.4994 28.7889 17.2472 28.6203 16.9696 28.5054C16.692 28.3905 16.3944 28.3316 16.094 28.332Z" fill="#23B57B"/>
<path d="M26.521 26.809H19.479C19.2636 27.1863 18.9705 27.5136 18.619 27.769C18.8097 27.9393 18.9829 28.1282 19.136 28.333H22.236V34.478H21.424C21.3217 34.4743 21.2196 34.4912 21.124 34.5278C21.0284 34.5644 20.9411 34.6199 20.8674 34.691C20.7937 34.7621 20.7351 34.8473 20.6951 34.9415C20.655 35.0358 20.6344 35.1371 20.6344 35.2395C20.6344 35.3419 20.655 35.4432 20.6951 35.5375C20.7351 35.6317 20.7937 35.7169 20.8674 35.788C20.9411 35.8591 21.0284 35.9146 21.124 35.9512C21.2196 35.9878 21.3217 36.0047 21.424 36.001H24.572C24.6743 36.0047 24.7763 35.9878 24.872 35.9512C24.9676 35.9146 25.0549 35.8591 25.1286 35.788C25.2023 35.7169 25.2609 35.6317 25.3009 35.5375C25.341 35.4432 25.3616 35.3419 25.3616 35.2395C25.3616 35.1371 25.341 35.0358 25.3009 34.9415C25.2609 34.8473 25.2023 34.7621 25.1286 34.691C25.0549 34.6199 24.9676 34.5644 24.872 34.5278C24.7763 34.4912 24.6743 34.4743 24.572 34.478H23.76V28.333H26.86C27.0131 28.1283 27.1863 27.9393 27.377 27.769C27.027 27.5131 26.7352 27.1859 26.521 26.809Z" fill="#23B57B"/>
</g>
<defs>
<clipPath id="clip0_5_67">
<rect width="26" height="26" fill="white" transform="translate(10 10)"/>
</clipPath>
</defs>
</svg>
