<svg width="46" height="46" viewBox="0 0 46 46" fill="none" xmlns="http://www.w3.org/2000/svg">
<path fill-rule="evenodd" clip-rule="evenodd" d="M23 44C34.598 44 44 34.598 44 23C44 11.402 34.598 2 23 2C11.402 2 2 11.402 2 23C2 34.598 11.402 44 23 44ZM23 46C35.7025 46 46 35.7025 46 23C46 10.2975 35.7025 0 23 0C10.2975 0 0 10.2975 0 23C0 35.7025 10.2975 46 23 46Z" fill="#23B57B"/>
<path d="M33.837 27.7238C33.2654 27.7245 32.7132 27.9316 32.282 28.3068L27.794 25.7728C28.1786 24.8237 28.2887 23.7857 28.1119 22.777C27.9351 21.7683 27.4784 20.8296 26.794 20.0678L31.326 14.7798C31.6879 14.9229 32.0794 14.975 32.4661 14.9317C32.8528 14.8883 33.2231 14.7509 33.5444 14.5313C33.8657 14.3117 34.1283 14.0168 34.3092 13.6722C34.49 13.3276 34.5837 12.944 34.582 12.5548C34.6032 12.2273 34.5569 11.8989 34.4462 11.59C34.3354 11.281 34.1624 10.9981 33.9379 10.7586C33.7135 10.5191 33.4423 10.3283 33.1411 10.1978C32.8399 10.0673 32.5152 10 32.187 10C31.8588 10 31.534 10.0673 31.2329 10.1978C30.9317 10.3283 30.6605 10.5191 30.436 10.7586C30.2116 10.9981 30.0386 11.281 29.9278 11.59C29.817 11.8989 29.7708 12.2273 29.792 12.5548C29.7946 12.9721 29.9074 13.3812 30.119 13.7408L25.591 19.0238C24.7989 18.5099 23.8869 18.2105 22.9444 18.1549C22.0018 18.0994 21.061 18.2895 20.214 18.7068L18.132 15.5798C18.4443 15.1691 18.6142 14.6678 18.616 14.1518C18.6237 13.6426 18.4713 13.1438 18.1804 12.7258C17.8894 12.3078 17.4746 11.9917 16.9944 11.822C16.5142 11.6524 15.9929 11.6378 15.5039 11.7802C15.015 11.9227 14.5831 12.2151 14.2692 12.6161C13.9552 13.0172 13.7752 13.5066 13.7543 14.0155C13.7334 14.5244 13.8729 15.0269 14.1529 15.4523C14.4329 15.8777 14.8394 16.2045 15.3151 16.3865C15.7907 16.5685 16.3115 16.5966 16.804 16.4668L18.888 19.5918C18.1074 20.2655 17.5364 21.1488 17.2425 22.1371C16.9487 23.1253 16.9443 24.1772 17.23 25.1678L13.13 26.9068C12.7506 26.5005 12.2413 26.2394 11.6899 26.1686C11.1386 26.0978 10.5798 26.2217 10.1101 26.519C9.64035 26.8163 9.28916 27.2682 9.11713 27.7968C8.9451 28.3254 8.96303 28.8975 9.16783 29.4142C9.37263 29.931 9.75144 30.3601 10.2389 30.6273C10.7263 30.8946 11.2917 30.9833 11.8376 30.8781C12.3834 30.7729 12.8754 30.4804 13.2285 30.0511C13.5817 29.6218 13.7739 29.0827 13.772 28.5268C13.772 28.4748 13.76 28.4268 13.757 28.3748L17.857 26.6408C18.3517 27.4565 19.0475 28.1316 19.8778 28.6013C20.708 29.0711 21.645 29.3199 22.599 29.3238L23.099 32.8558C22.604 33.1204 22.2184 33.5513 22.0103 34.0726C21.8021 34.5938 21.7848 35.1718 21.9613 35.7045C22.1378 36.2373 22.4968 36.6906 22.975 36.9844C23.4532 37.2782 24.0198 37.3936 24.5749 37.3103C25.1299 37.227 25.6376 36.9503 26.0085 36.529C26.3794 36.1078 26.5895 35.5691 26.6019 35.008C26.6142 34.4469 26.4279 33.8995 26.0759 33.4623C25.7239 33.0252 25.2288 32.7265 24.678 32.6188L24.178 29.0728C25.2924 28.7445 26.2763 28.076 26.992 27.1608L31.482 29.6938C31.3953 30.1774 31.4596 30.6759 31.6662 31.1217C31.8728 31.5674 32.2116 31.9387 32.6366 32.1852C33.0616 32.4316 33.5522 32.5412 34.0417 32.499C34.5311 32.4569 34.9958 32.265 35.3724 31.9496C35.749 31.6341 36.0194 31.2104 36.1467 30.7359C36.2741 30.2614 36.2522 29.7592 36.0842 29.2976C35.9161 28.8359 35.61 28.4372 35.2074 28.1557C34.8048 27.8741 34.3253 27.7233 33.834 27.7238H33.837Z" fill="#23B57B"/>
</svg>
