<svg width="46" height="46" viewBox="0 0 46 46" fill="none" xmlns="http://www.w3.org/2000/svg">
<path fill-rule="evenodd" clip-rule="evenodd" d="M23 44C34.598 44 44 34.598 44 23C44 11.402 34.598 2 23 2C11.402 2 2 11.402 2 23C2 34.598 11.402 44 23 44ZM23 46C35.7025 46 46 35.7025 46 23C46 10.2975 35.7025 0 23 0C10.2975 0 0 10.2975 0 23C0 35.7025 10.2975 46 23 46Z" fill="#23B57B"/>
<g clip-path="url(#clip0_5_64)">
<path d="M25.456 20.024L25.313 21.294C25.309 21.3324 25.3136 21.3712 25.3266 21.4075C25.3396 21.4439 25.3605 21.4768 25.388 21.504C25.415 21.5324 25.4485 21.554 25.4855 21.567C25.5225 21.5801 25.5621 21.5842 25.601 21.579L26.873 21.434C26.8973 21.4286 26.9213 21.4219 26.945 21.414L25.475 19.944C25.4671 19.9703 25.4607 19.997 25.456 20.024Z" fill="#23B57B"/>
<path d="M25.926 19.343L29.9919 15.2771L31.6246 16.9098L27.5587 20.9757L25.926 19.343Z" fill="#23B57B"/>
<path d="M30.517 14.746L31.07 14.193L32.7013 15.8243L32.1483 16.3773L30.517 14.746Z" fill="#23B57B"/>
<path d="M33.778 14.748C33.8148 14.7125 33.8442 14.67 33.8643 14.6229C33.8844 14.5758 33.8948 14.5252 33.895 14.474C33.895 14.4221 33.8847 14.3706 33.8646 14.3227C33.8445 14.2748 33.815 14.2314 33.778 14.195L32.701 13.117C32.6641 13.0795 32.6201 13.0498 32.5714 13.0296C32.5228 13.0095 32.4706 12.9995 32.418 13C32.3671 13.0002 32.3167 13.0106 32.2698 13.0305C32.2229 13.0504 32.1805 13.0795 32.145 13.116L31.596 13.664L33.231 15.3L33.778 14.748Z" fill="#23B57B"/>
<path d="M15.239 28.671H15.985C16.0839 28.671 16.1788 28.6317 16.2487 28.5618C16.3187 28.4918 16.358 28.3969 16.358 28.298V13.373C16.358 13.2741 16.3187 13.1792 16.2487 13.1093C16.1788 13.0393 16.0839 13 15.985 13H15.239C14.9446 12.9996 14.653 13.0572 14.3809 13.1695C14.1088 13.2819 13.8615 13.4467 13.6531 13.6546C13.4447 13.8625 13.2794 14.1095 13.1664 14.3813C13.0535 14.6532 12.9953 14.9446 12.995 15.239V29.684C13.2752 29.365 13.6204 29.1095 14.0074 28.9348C14.3945 28.7601 14.8144 28.6702 15.239 28.671Z" fill="#23B57B"/>
<path d="M15.347 33.895H33.522C33.6209 33.895 33.7158 33.8557 33.7858 33.7858C33.8557 33.7158 33.895 33.6209 33.895 33.522V18.597C33.895 18.4981 33.8557 18.4032 33.7858 18.3333C33.7158 18.2633 33.6209 18.224 33.522 18.224H31.358L27.816 21.769C27.5836 21.9972 27.2816 22.1411 26.958 22.178C25.699 22.319 25.687 22.329 25.578 22.329H20.089V26.429H29.044V24.567C29.044 24.4681 29.0833 24.3732 29.1532 24.3033C29.2232 24.2333 29.3181 24.194 29.417 24.194C29.5159 24.194 29.6108 24.2333 29.6808 24.3033C29.7507 24.3732 29.79 24.4681 29.79 24.567V30.167C29.79 30.265 29.7707 30.362 29.7332 30.4525C29.6957 30.543 29.6408 30.6252 29.5715 30.6945C29.5022 30.7638 29.42 30.8187 29.3295 30.8562C29.239 30.8937 29.142 30.913 29.044 30.913H21.582C21.4831 30.913 21.3882 30.8737 21.3182 30.8038C21.2483 30.7338 21.209 30.6389 21.209 30.54C21.209 30.4411 21.2483 30.3462 21.3182 30.2762C21.3882 30.2063 21.4831 30.167 21.582 30.167H24.195V27.182H20.095V32.406C20.095 32.5049 20.0557 32.5998 19.9858 32.6698C19.9158 32.7397 19.8209 32.779 19.722 32.779C19.6231 32.779 19.5282 32.7397 19.4582 32.6698C19.3883 32.5998 19.349 32.5049 19.349 32.406V22.328H18.224C18.1251 22.328 18.0302 22.2887 17.9602 22.2188C17.8903 22.1488 17.851 22.0539 17.851 21.955C17.851 21.8561 17.8903 21.7612 17.9602 21.6913C18.0302 21.6213 18.1251 21.582 18.224 21.582H24.608C24.5733 21.4623 24.5614 21.3371 24.573 21.213L24.714 19.942C24.7503 19.6116 24.8998 19.3039 25.137 19.071L25.984 18.224H17.104V28.298C17.104 28.5948 16.9861 28.8794 16.7763 29.0892C16.5664 29.2991 16.2818 29.417 15.985 29.417H15.239C14.6453 29.4175 14.0762 29.6536 13.6564 30.0734C13.2366 30.4932 13.0005 31.0623 13 31.656V31.738C13.0399 32.3299 13.3058 32.8839 13.7426 33.2854C14.1794 33.6868 14.7538 33.9051 15.347 33.895Z" fill="#23B57B"/>
<path d="M24.94 27.179H29.04V30.164H24.94V27.179Z" fill="#23B57B"/>
</g>
<defs>
<clipPath id="clip0_5_64">
<rect width="20.895" height="20.895" fill="white" transform="translate(13 13)"/>
</clipPath>
</defs>
</svg>
