<svg width="46" height="46" viewBox="0 0 46 46" fill="none" xmlns="http://www.w3.org/2000/svg">
<path fill-rule="evenodd" clip-rule="evenodd" d="M23 44C34.598 44 44 34.598 44 23C44 11.402 34.598 2 23 2C11.402 2 2 11.402 2 23C2 34.598 11.402 44 23 44ZM23 46C35.7025 46 46 35.7025 46 23C46 10.2975 35.7025 0 23 0C10.2975 0 0 10.2975 0 23C0 35.7025 10.2975 46 23 46Z" fill="#23B57B"/>
<g clip-path="url(#clip0_5_65)">
<path d="M10 32.151V19.222H32.61V32.151H10ZM12.079 22.862V28.507C12.5602 28.5073 13.0216 28.6986 13.3618 29.039C13.7019 29.3793 13.893 29.8408 13.893 30.322H28.712C28.7125 29.8404 28.9042 29.3788 29.2449 29.0385C29.5856 28.6982 30.0474 28.507 30.529 28.507V22.862C30.0474 22.862 29.5856 22.6708 29.2449 22.3305C28.9042 21.9902 28.7125 21.5286 28.712 21.047H13.894C13.894 21.5284 13.7028 21.99 13.3624 22.3304C13.022 22.6708 12.5604 22.862 12.079 22.862ZM18.579 25.448C18.579 24.9096 18.7387 24.3833 19.0378 23.9356C19.337 23.488 19.7621 23.1391 20.2596 22.9331C20.757 22.7271 21.3044 22.6733 21.8324 22.7784C22.3604 22.8835 22.8455 23.1428 23.2261 23.5236C23.6067 23.9044 23.8659 24.3895 23.9708 24.9176C24.0757 25.4457 24.0217 25.993 23.8155 26.4904C23.6093 26.9877 23.2603 27.4128 22.8125 27.7117C22.3648 28.0107 21.8384 28.1702 21.3 28.17C20.5787 28.1692 19.8872 27.882 19.3775 27.3716C18.8679 26.8612 18.5817 26.1693 18.582 25.448H18.579ZM33.516 17.614H11.187L33.986 15L35.339 27.857L33.516 28.049V17.614Z" fill="#23B57B"/>
</g>
<defs>
<clipPath id="clip0_5_65">
<rect width="25.339" height="17.151" fill="white" transform="translate(10 15)"/>
</clipPath>
</defs>
</svg>
