<svg width="46" height="46" viewBox="0 0 46 46" fill="none" xmlns="http://www.w3.org/2000/svg">
<path fill-rule="evenodd" clip-rule="evenodd" d="M23 44C34.598 44 44 34.598 44 23C44 11.402 34.598 2 23 2C11.402 2 2 11.402 2 23C2 34.598 11.402 44 23 44ZM23 46C35.7025 46 46 35.7025 46 23C46 10.2975 35.7025 0 23 0C10.2975 0 0 10.2975 0 23C0 35.7025 10.2975 46 23 46Z" fill="#23B57B"/>
<g clip-path="url(#clip0_2_11)">
<path d="M34.966 28.578V29.378C34.9658 29.4469 34.9479 29.5146 34.9139 29.5745C34.8799 29.6344 34.831 29.6845 34.772 29.72C34.605 29.82 30.595 32.174 22.983 32.174C15.371 32.174 11.361 29.82 11.194 29.719C11.135 29.6835 11.0861 29.6334 11.0521 29.5735C11.0181 29.5136 11.0002 29.4459 11 29.377V28.577C11 28.2587 11.1264 27.9535 11.3515 27.7285C11.5765 27.5034 11.8817 27.377 12.2 27.377H33.77C34.0877 27.3781 34.3921 27.5051 34.6163 27.7302C34.8405 27.9554 34.9663 28.2603 34.966 28.578ZM34.166 25.378C34.1689 22.5309 33.0811 19.7908 31.126 17.721L29.552 22.962C29.4771 23.2085 29.3248 23.4244 29.1177 23.5776C28.9106 23.7309 28.6596 23.8134 28.402 23.813C28.2857 23.8125 28.17 23.7963 28.058 23.765C27.7541 23.6726 27.4992 23.4634 27.3492 23.1834C27.1992 22.9033 27.1664 22.5752 27.258 22.271L29.127 16.04C28.2669 15.4692 27.3311 15.0216 26.347 14.71L25.536 22.004C25.4812 22.4923 25.2486 22.9434 24.8825 23.2711C24.5163 23.5989 24.0424 23.7804 23.551 23.781H22.416C21.9246 23.7804 21.4507 23.5989 21.0845 23.2711C20.7184 22.9434 20.4858 22.4923 20.431 22.004L19.62 14.714C18.6359 15.0256 17.7001 15.4732 16.84 16.044L18.709 22.275C18.8006 22.5792 18.7678 22.9073 18.6178 23.1874C18.4678 23.4674 18.2129 23.6766 17.909 23.769C17.797 23.8003 17.6813 23.8165 17.565 23.817C17.3074 23.8174 17.0564 23.7349 16.8493 23.5816C16.6422 23.4284 16.4899 23.2125 16.415 22.966L14.839 17.725C12.8843 19.7949 11.7968 22.535 11.8 25.382V26.582H34.167L34.166 25.378ZM21.225 21.92C21.2579 22.213 21.3975 22.4835 21.6172 22.6802C21.8369 22.8768 22.1212 22.9856 22.416 22.986H23.55C23.8448 22.9856 24.1291 22.8768 24.3488 22.6802C24.5685 22.4835 24.7081 22.213 24.741 21.92L25.584 14.331C25.6023 14.1633 25.5851 13.9936 25.5334 13.833C25.4817 13.6724 25.3967 13.5245 25.284 13.399C25.1724 13.2726 25.0351 13.1715 24.8813 13.1026C24.7274 13.0336 24.5606 12.9983 24.392 12.999H21.573C21.4044 12.9983 21.2376 13.0336 21.0837 13.1026C20.9299 13.1715 20.7926 13.2726 20.681 13.399C20.5683 13.5245 20.4833 13.6724 20.4316 13.833C20.3799 13.9936 20.3627 14.1633 20.381 14.331L21.225 21.92Z" fill="#23B57B"/>
</g>
<defs>
<clipPath id="clip0_2_11">
<rect width="23.966" height="19.173" fill="white" transform="translate(11 13)"/>
</clipPath>
</defs>
</svg>
