<svg width="46" height="46" viewBox="0 0 46 46" fill="none" xmlns="http://www.w3.org/2000/svg">
<path fill-rule="evenodd" clip-rule="evenodd" d="M23 44C34.598 44 44 34.598 44 23C44 11.402 34.598 2 23 2C11.402 2 2 11.402 2 23C2 34.598 11.402 44 23 44ZM23 46C35.7025 46 46 35.7025 46 23C46 10.2975 35.7025 0 23 0C10.2975 0 0 10.2975 0 23C0 35.7025 10.2975 46 23 46Z" fill="#23B57B"/>
<path fill-rule="evenodd" clip-rule="evenodd" d="M22.1468 36.1716V32.6856C22.4514 32.7795 22.7772 32.7795 23.0818 32.6856V36.1676L23.8818 35.1476C23.9596 35.0541 24.0708 34.9947 24.1917 34.9819C24.3126 34.9691 24.4338 35.004 24.5294 35.0791C24.625 35.1543 24.6875 35.2638 24.7037 35.3843C24.7198 35.5049 24.6883 35.6269 24.6158 35.7246L22.9818 37.7966C22.9387 37.8537 22.8831 37.9001 22.8192 37.9322C22.7554 37.9644 22.685 37.9815 22.6135 37.9822C22.542 37.9829 22.4713 37.9671 22.4069 37.9361C22.3424 37.9052 22.286 37.8598 22.2418 37.8036L20.6028 35.7246C20.5629 35.6766 20.533 35.6211 20.5149 35.5614C20.4968 35.5017 20.4908 35.4389 20.4974 35.3768C20.5039 35.3147 20.5229 35.2546 20.5531 35.2C20.5833 35.1454 20.6241 35.0973 20.6732 35.0588C20.7223 35.0202 20.7786 34.9919 20.8388 34.9754C20.899 34.959 20.9619 34.9548 21.0237 34.963C21.0856 34.9713 21.1452 34.9919 21.199 35.0236C21.2527 35.0553 21.2996 35.0975 21.3368 35.1476L22.1468 36.1716ZM22.9548 15.2506L25.2088 16.5506L17.9018 20.7706V23.8956C17.9009 23.9555 17.9162 24.0146 17.9461 24.0665C17.976 24.1185 18.0195 24.1614 18.0718 24.1906L19.7658 25.1686C19.7916 25.1835 19.8209 25.1914 19.8507 25.1914C19.8806 25.1914 19.9099 25.1835 19.9357 25.1687C19.9615 25.1538 19.983 25.1323 19.9979 25.1065C20.0129 25.0807 20.0208 25.0514 20.0208 25.0216V21.9936L27.3318 17.7756L29.5858 19.0756C29.6902 19.1341 29.7769 19.2197 29.8368 19.3233C29.8966 19.427 29.9274 19.5449 29.9258 19.6646V27.3156C29.9275 27.4353 29.8968 27.5532 29.8369 27.6569C29.7771 27.7606 29.6903 27.8462 29.5858 27.9046L22.9598 31.7296C22.857 31.7909 22.7395 31.8232 22.6198 31.8232C22.5001 31.8232 22.3826 31.7909 22.2798 31.7296L15.6488 27.9056C15.5443 27.8472 15.4575 27.7616 15.3977 27.6579C15.3378 27.5542 15.3071 27.4363 15.3088 27.3166V19.6656C15.3072 19.5459 15.338 19.428 15.3978 19.3243C15.4576 19.2207 15.5444 19.1351 15.6488 19.0766L22.2748 15.2516C22.3776 15.1903 22.4951 15.1579 22.6148 15.1579C22.7345 15.1579 22.852 15.1893 22.9548 15.2506ZM14.8818 28.4946L11.8648 30.2366L13.1518 30.4236C13.2708 30.445 13.3768 30.5118 13.4476 30.6098C13.5184 30.7079 13.5484 30.8295 13.5313 30.9492C13.5142 31.0689 13.4513 31.1773 13.3559 31.2516C13.2605 31.3259 13.14 31.3603 13.0198 31.3476L10.3998 30.9676C10.3301 30.9576 10.2636 30.9319 10.2052 30.8925C10.1468 30.8531 10.0982 30.801 10.0629 30.7401C10.0275 30.6791 10.0065 30.611 10.0013 30.5408C9.99607 30.4706 10.0068 30.4001 10.0328 30.3346L11.0138 27.8756C11.0348 27.8167 11.0675 27.7626 11.1098 27.7166C11.1522 27.6706 11.2034 27.6336 11.2604 27.6078C11.3173 27.582 11.3789 27.5679 11.4414 27.5664C11.5039 27.5649 11.5661 27.576 11.6243 27.599C11.6824 27.622 11.7353 27.6565 11.7799 27.7004C11.8244 27.7444 11.8596 27.7968 11.8835 27.8546C11.9073 27.9124 11.9193 27.9744 11.9186 28.037C11.918 28.0995 11.9048 28.1613 11.8798 28.2186L11.3968 29.4296L14.4148 27.6856C14.4858 27.996 14.6485 28.2778 14.8818 28.4946ZM14.4158 19.2946L11.3968 17.5516L11.8808 18.7646C11.9058 18.8219 11.919 18.8837 11.9196 18.9462C11.9203 19.0088 11.9083 19.0708 11.8845 19.1286C11.8606 19.1864 11.8254 19.2388 11.7809 19.2828C11.7363 19.3267 11.6834 19.3612 11.6253 19.3842C11.5671 19.4072 11.5049 19.4183 11.4424 19.4168C11.3799 19.4153 11.3183 19.4012 11.2614 19.3754C11.2044 19.3496 11.1532 19.3126 11.1108 19.2666C11.0685 19.2206 11.0358 19.1665 11.0148 19.1076L10.0468 16.6806C10.0149 16.6144 9.99911 16.5417 10.0006 16.4683C10.0022 16.3948 10.021 16.3228 10.0556 16.258C10.0901 16.1932 10.1395 16.1375 10.1997 16.0954C10.2598 16.0533 10.3291 16.0259 10.4018 16.0156L13.0218 15.6356C13.0836 15.6245 13.1469 15.6259 13.2081 15.6398C13.2693 15.6537 13.3271 15.6798 13.378 15.7166C13.4289 15.7533 13.4718 15.7999 13.5043 15.8536C13.5368 15.9073 13.5581 15.967 13.5669 16.0292C13.5758 16.0913 13.5721 16.1546 13.5559 16.2152C13.5398 16.2759 13.5116 16.3326 13.4731 16.3821C13.4345 16.4317 13.3864 16.4729 13.3315 16.5034C13.2766 16.5339 13.2162 16.553 13.1538 16.5596L11.8648 16.7466L14.8808 18.4856C14.6479 18.7024 14.4865 18.9843 14.4158 19.2946ZM22.1478 14.2946V10.8106L21.3478 11.8306C21.27 11.9241 21.1588 11.9835 21.0379 11.9963C20.917 12.0091 20.7958 11.9742 20.7002 11.8991C20.6046 11.8239 20.5421 11.7144 20.5259 11.5939C20.5098 11.4733 20.5413 11.3513 20.6138 11.2536L22.2418 9.1856C22.2849 9.12854 22.3405 9.08213 22.4043 9.04996C22.4682 9.01778 22.5386 9.0007 22.6101 9.00002C22.6816 8.99934 22.7523 9.01509 22.8167 9.04605C22.8812 9.07702 22.9376 9.12236 22.9818 9.1786L24.6208 11.2576C24.6607 11.3056 24.6906 11.3611 24.7087 11.4208C24.7268 11.4805 24.7328 11.5433 24.7262 11.6054C24.7197 11.6674 24.7007 11.7276 24.6705 11.7822C24.6403 11.8368 24.5995 11.8848 24.5504 11.9234C24.5013 11.962 24.445 11.9903 24.3848 12.0068C24.3246 12.0232 24.2617 12.0274 24.1998 12.0192C24.138 12.0109 24.0784 11.9903 24.0246 11.9586C23.9709 11.9269 23.924 11.8847 23.8868 11.8346L23.0868 10.8146V14.2966C22.7822 14.2028 22.4564 14.2028 22.1518 14.2966L22.1478 14.2946ZM30.3478 18.4946L33.3648 16.7526L32.0778 16.5656C31.9588 16.5442 31.8528 16.4774 31.782 16.3794C31.7112 16.2813 31.6812 16.1597 31.6983 16.04C31.7154 15.9203 31.7783 15.8119 31.8737 15.7376C31.9691 15.6633 32.0896 15.6289 32.2098 15.6416L34.8298 16.0216C34.8995 16.0316 34.966 16.0573 35.0244 16.0967C35.0828 16.1361 35.1314 16.1882 35.1667 16.2491C35.2021 16.3101 35.2231 16.3782 35.2283 16.4484C35.2335 16.5186 35.2227 16.5891 35.1968 16.6546L34.2158 19.1136C34.1675 19.2243 34.078 19.312 33.9663 19.3581C33.8546 19.4041 33.7294 19.405 33.6171 19.3605C33.5047 19.316 33.4141 19.2296 33.3642 19.1196C33.3143 19.0095 33.3092 18.8844 33.3498 18.7706L33.8318 17.5526L30.8148 19.2956C30.7436 18.9855 30.5809 18.704 30.3478 18.4876V18.4946ZM30.8138 27.6946L33.8318 29.4306L33.3478 28.2176C33.3072 28.1038 33.3123 27.9787 33.3622 27.8686C33.4121 27.7586 33.5027 27.6722 33.6151 27.6277C33.7274 27.5832 33.8526 27.5841 33.9643 27.6301C34.076 27.6762 34.1655 27.7639 34.2138 27.8746L35.1818 30.3016C35.2137 30.3678 35.2295 30.4405 35.228 30.5139C35.2264 30.5874 35.2076 30.6594 35.173 30.7242C35.1384 30.789 35.0891 30.8447 35.0289 30.8868C34.9688 30.9289 34.8995 30.9563 34.8268 30.9666L32.2068 31.3466C32.145 31.3577 32.0817 31.3563 32.0205 31.3424C31.9593 31.3285 31.9015 31.3024 31.8506 31.2656C31.7997 31.2289 31.7568 31.1823 31.7243 31.1286C31.6918 31.0749 31.6705 31.0152 31.6617 30.953C31.6528 30.8909 31.6565 30.8276 31.6727 30.767C31.6888 30.7063 31.717 30.6496 31.7555 30.6C31.7941 30.5505 31.8422 30.5093 31.8971 30.4788C31.952 30.4483 32.0124 30.4292 32.0748 30.4226L33.3638 30.2356L30.3458 28.4936C30.5793 28.2773 30.7424 27.9958 30.8138 27.6856V27.6946Z" fill="#23B57B"/>
</svg>
