<svg xmlns="http://www.w3.org/2000/svg" width="28.856" height="36.999" viewBox="0 0 28.856 36.999">
  <path id="path270" d="M571.086,46.484h1.631V36.94l3.181-3.184h3.329l1.111-1.109H576.71l2.737-2.738h5.327l1.333-1.333h-5.327l2-2h3.033V25.4h-1.85l2.368-2.368v-1.7l-2.663,2.664V20.81l-1.259,1.257v2.96l-1.922,1.924V24.213l-1.333,1.331v2.888l-2.737,2.738V28.282l-1.333,1.333v2.959l-2.516,2.516c.074-.072,0-5.845,0-5.845l2.663-2.666H577.9V25.47h-1.85l5.475-5.475h4V18.886h-3.035l1.779-1.777-.446-.963-.813.815V14.667l-1.259-1.259v4.81l-6.066,6.069V21.251l-1.111,1.111V25.47l-2.072,2.072v-5.7l1.629-1.629h3.922l1.183-1.183h-4.292l2.146-2.146h3.257V15.7h-2.146l3.033-3.033-1.035-.963-2.072,2.072V10.966L577.08,9.929v5.4l-1.924,1.924v-3.7L573.9,14.815v3.551L572.566,19.7V13.851l3.774-3.775h-1.554l-2.22,2.22V9.485h-1.33V12.3l-2.22-2.22h-1.555l3.775,3.775V19.7L569.9,18.366V14.815l-1.256-1.259v3.7l-1.924-1.924v-5.4l-1.037,1.037v2.812l-2.07-2.072-1.037.963,3.033,3.033h-2.144v1.185h3.255l2.146,2.146h-4.292l1.183,1.183h3.922l1.629,1.629v5.7l-2.072-2.072V22.363l-1.111-1.111v3.036l-6.066-6.069v-4.81L560.8,14.667v2.294l-.813-.815-.444.963,1.776,1.777h-3.035v1.109h4l5.475,5.475h-1.85v1.109h2.666l2.664,2.666s-.076,5.773,0,5.845l-2.516-2.516V29.615l-1.333-1.333v2.888l-2.737-2.738V25.544l-1.333-1.331v2.738L561.4,25.026v-2.96l-1.259-1.257v3.179l-2.663-2.664v1.7l2.368,2.368h-1.85v1.183h3.033l2,2h-5.329l1.333,1.333h5.329l2.737,2.738h-3.624l1.109,1.109H567.9l3.181,3.184v9.544Z" transform="translate(-557.473 -9.485)" fill="#23b57b"/>
</svg>
