<svg width="28" height="28" viewBox="0 0 28 28" fill="none" xmlns="http://www.w3.org/2000/svg">
<path d="M27.54 25.3318L22.2528 20.0602C23.9587 17.8869 24.8843 15.2032 24.8809 12.4404C24.8809 9.97995 24.1513 7.57472 22.7843 5.5289C21.4173 3.48309 19.4744 1.88856 17.2012 0.946977C14.928 0.0053902 12.4266 -0.240972 10.0134 0.239045C7.60022 0.719062 5.38355 1.9039 3.64372 3.64372C1.9039 5.38355 0.719062 7.60022 0.239045 10.0134C-0.240972 12.4266 0.0053902 14.928 0.946977 17.2012C1.88856 19.4744 3.48309 21.4173 5.5289 22.7843C7.57472 24.1513 9.97995 24.8809 12.4404 24.8809C15.2032 24.8843 17.8869 23.9587 20.0602 22.2528L25.3318 27.54C25.4764 27.6858 25.6484 27.8015 25.8379 27.8804C26.0274 27.9594 26.2306 28 26.4359 28C26.6412 28 26.8445 27.9594 27.034 27.8804C27.2235 27.8015 27.3955 27.6858 27.54 27.54C27.6858 27.3955 27.8015 27.2235 27.8804 27.034C27.9594 26.8445 28 26.6412 28 26.4359C28 26.2306 27.9594 26.0274 27.8804 25.8379C27.8015 25.6484 27.6858 25.4764 27.54 25.3318ZM3.11011 12.4404C3.11011 10.5951 3.65733 8.79115 4.68256 7.25679C5.70779 5.72243 7.16499 4.52653 8.86988 3.82034C10.5748 3.11415 12.4508 2.92938 14.2607 3.28939C16.0706 3.64941 17.7331 4.53803 19.038 5.8429C20.3428 7.14777 21.2315 8.81028 21.5915 10.6202C21.9515 12.4301 21.7667 14.3061 21.0605 16.011C20.3543 17.7159 19.1585 19.1731 17.6241 20.1983C16.0897 21.2236 14.2858 21.7708 12.4404 21.7708C9.96588 21.7708 7.59268 20.7878 5.8429 19.038C4.09313 17.2882 3.11011 14.915 3.11011 12.4404Z" fill="#23B57B"/>
</svg>
